<svg xmlns="http://www.w3.org/2000/svg" data-name="Layer 1" viewBox="0 0 53 53"><path d="m49.88 30.9-20.33-8.42a1 1 0 0 0-1.31.54l-.49 1.19-1.94-.81L27 20.62l.87.36a.9.9 0 0 0 .38.08 1 1 0 0 0 .93-.62l1.72-4.24a1 1 0 0 0 0-.77 1.05 1.05 0 0 0-.54-.54L17.81 9.7a1 1 0 0 0-1.31.54l-1.75 4.25a1 1 0 0 0 .54 1.3l.87.36-3.06 7.41-.88-.36a1 1 0 0 0-1.3.54L9.16 28a1 1 0 0 0 .54 1.3l12.54 5.19a1.07 1.07 0 0 0 .39.07 1 1 0 0 0 .38-.07 1 1 0 0 0 .54-.54l1.76-4.25a1 1 0 0 0-.54-1.31l-.88-.39L25 25.25l1.94.8-.49 1.19a1 1 0 0 0 0 .76 1 1 0 0 0 .54.55L47.37 37a1.08 1.08 0 0 0 .38.08 1 1 0 0 0 .93-.62l1.74-4.22a.92.92 0 0 0 0-.76 1 1 0 0 0-.54-.58zM18 11.93l10.7 4.43-1 2.39L17 14.33zm4.11 20.33-10.72-4.43 1-2.4 10.7 4.43zM18 16.92l7.1 2.94-3.1 7.41-7-2.94zm29.2 17.81-18.48-7.65 1-2.37 18.48 7.65zm-16.63 2.16H6.44a1 1 0 0 0-1 1v3.49H3.5a1 1 0 0 0 0 2h30a1 1 0 0 0 0-2h-1.93v-3.49a1 1 0 0 0-1-1zM7.44 41.38v-2.49h22.13v2.49z"/></svg>