<svg xmlns="http://www.w3.org/2000/svg" viewBox="0 0 64 64"><path d="M50,46.13V28.45a18.75,18.75,0,0,0-5.61-13.3A17.76,17.76,0,0,0,35,10.28V7a3,3,0,0,0-6,0v3.27A18.09,18.09,0,0,0,14,28V46.13A4,4,0,0,0,11,50v3a1,1,0,0,0,1,1H24.26a8,8,0,0,0,15.48,0H52a1,1,0,0,0,1-1V50A4,4,0,0,0,50,46.13ZM31,7a1,1,0,0,1,2,0v3H31Zm1,51a6,6,0,0,1-5.65-4h11.3A6,6,0,0,1,32,58Zm19-6H13V50a2,2,0,0,1,2-2,1,1,0,0,0,1-1V28A16.08,16.08,0,0,1,31.69,12,15.57,15.57,0,0,1,43,16.58a16.75,16.75,0,0,1,5,11.87V47a1,1,0,0,0,1,1,2,2,0,0,1,2,2ZM42,24H40a5.78,5.78,0,0,0-6-6V16C37.22,16,42,18.13,42,24Z" data-name="59 Notifications, Alarm, Notification"/></svg>